<?xml version="1.0" encoding="iso-8859-1"?>
<!-- Generator: Adobe Illustrator 19.0.0, SVG Export Plug-In . SVG Version: 6.00 Build 0)  -->
<svg version="1.1" id="Layer_1" xmlns="http://www.w3.org/2000/svg" xmlns:xlink="http://www.w3.org/1999/xlink" x="0px" y="0px"
	 viewBox="0 0 512 512" style="enable-background:new 0 0 512 512;" xml:space="preserve">
<rect x="431.327" y="294.812" style="fill:#FF969F;" width="68.604" height="32.946"/>
<path style="fill:#FF717D;" d="M52.992,260.133c11.973-32.573,35.03-59.79,64.621-77.052v-61.795
	c26.852,0,49.458,18.123,56.293,42.801c6.008-0.741,12.125-1.128,18.334-1.128h112.723c81.918,0,148.327,66.408,148.327,148.327
	c0,70.747-49.535,129.918-115.811,144.742v55.97h-59.262v-52.385h-59.232V512h-59.262v-55.989
	c-49.431-11.06-89.556-46.767-106.752-93.57H12.068V260.133H52.992z"/>
<path style="fill:#FF969F;" d="M248.601,162.959h-56.362c-6.208,0-12.326,0.388-18.334,1.128
	c-6.834-24.677-29.439-42.801-56.293-42.801v61.795c-29.59,17.261-52.648,44.479-64.621,77.052H12.068v102.307h40.902
	c17.197,46.804,57.321,82.511,106.752,93.57V512h59.262v-52.386H248.6V162.959H248.601z"/>
<circle style="fill:#FBB500;" cx="248.606" cy="60.642" r="60.642"/>
<g>
	<circle style="fill:#E21B4E;" cx="117.615" cy="260.133" r="17.189"/>
	<rect x="183.732" y="186.932" style="fill:#E21B4E;" width="129.738" height="31.115"/>
</g>
<rect x="183.732" y="186.932" style="fill:#FF717D;" width="64.864" height="31.115"/>
<path style="fill:#FFCE47;" d="M248.601,0c-33.492,0-60.643,27.151-60.643,60.643s27.151,60.643,60.643,60.643V0z"/>
<g>
</g>
<g>
</g>
<g>
</g>
<g>
</g>
<g>
</g>
<g>
</g>
<g>
</g>
<g>
</g>
<g>
</g>
<g>
</g>
<g>
</g>
<g>
</g>
<g>
</g>
<g>
</g>
<g>
</g>
</svg>
